<svg xmlns="http://www.w3.org/2000/svg" viewBox="0 0 560 640" role="img" aria-labelledby="title">
  <title id="title">Audio pipeline — top-down</title>
  <style>
    .bg   { fill: #ffffff; }
    .box  { fill: #f2f3f7; stroke: #7a7d8a; stroke-width: 1.2; rx: 6; ry: 6; }
    .io   { fill: #dbe6ff; stroke: #1e66f5; stroke-width: 1.8; rx: 6; ry: 6; }
    .ml   { fill: #fff3d6; stroke: #b3741a; stroke-width: 1.5; rx: 6; ry: 6; }
    .orc  { fill: #e6f4e8; stroke: #2f8f3c; stroke-width: 1.8; rx: 6; ry: 6; }
    .tb   { fill: #1e1e2e; font-family: -apple-system, "Segoe UI", Arial, sans-serif; font-size: 14px; font-weight: 700; }
    .sub  { fill: #4b4f5a; font-family: -apple-system, "Segoe UI", Arial, sans-serif; font-size: 12px; }
    .lbl  { fill: #7a7d8a; font-family: ui-monospace, Consolas, monospace; font-size: 11px; }
    .lblbg{ fill: #ffffff; }
    .line { stroke: #4b4f5a; stroke-width: 1.4; fill: none; }
    .arr  { fill: #4b4f5a; }
    .title{ fill: #1e1e2e; font-family: -apple-system, "Segoe UI", Arial, sans-serif; font-size: 15px; font-weight: 700; }
  </style>
  <defs>
    <marker id="a" viewBox="0 0 10 10" refX="9" refY="5" markerWidth="7" markerHeight="7" orient="auto">
      <path d="M 0 0 L 10 5 L 0 10 z" class="arr"/>
    </marker>
  </defs>
  <rect class="bg" width="560" height="640"/>

  <text class="title" x="280" y="28" text-anchor="middle">Audio subsystem · capture and synthesis</text>

  <rect class="io"  x="180" y="62" width="200" height="52"/>
  <text class="tb"  x="280" y="88" text-anchor="middle">ReSpeaker 4-mic</text>
  <text class="sub" x="280" y="106" text-anchor="middle">16 kHz mono · USB</text>

  <rect class="box" x="180" y="148" width="200" height="52"/>
  <text class="tb"  x="280" y="172" text-anchor="middle">AudioInput</text>
  <text class="sub" x="280" y="190" text-anchor="middle">PyAudio · 512-sample chunks</text>

  <rect class="ml"  x="180" y="234" width="200" height="52"/>
  <text class="tb"  x="280" y="258" text-anchor="middle">Silero VAD v5</text>
  <text class="sub" x="280" y="276" text-anchor="middle">32 ms windows · threshold 0.35</text>

  <rect class="ml"  x="180" y="320" width="200" height="52"/>
  <text class="tb"  x="280" y="344" text-anchor="middle">Parakeet TDT STT</text>
  <text class="sub" x="280" y="362" text-anchor="middle">CUDA ONNX · streaming</text>

  <rect class="orc" x="50"  y="406" width="460" height="52"/>
  <text class="tb"  x="280" y="430" text-anchor="middle">ConversationManager</text>
  <text class="sub" x="280" y="448" text-anchor="middle">routes transcript to the LLM · returns reply text</text>

  <rect class="ml"  x="180" y="492" width="200" height="52"/>
  <text class="tb"  x="280" y="516" text-anchor="middle">Piper TTS</text>
  <text class="sub" x="280" y="534" text-anchor="middle">CPU · 24 kHz output</text>

  <rect class="io"  x="180" y="566" width="200" height="44"/>
  <text class="tb"  x="280" y="592" text-anchor="middle">Speaker · aplay stream</text>

  <!-- Arrows (labels beside segment midpoints, with white backdrop) -->
  <path class="line" d="M 280 114 L 280 148" marker-end="url(#a)"/>
  <rect class="lblbg" x="294" y="124" width="80" height="13"/>
  <text class="lbl" x="334" y="134" text-anchor="middle">PCM 16 kHz</text>

  <path class="line" d="M 280 200 L 280 234" marker-end="url(#a)"/>
  <rect class="lblbg" x="294" y="210" width="40" height="13"/>
  <text class="lbl" x="314" y="220" text-anchor="middle">chunk</text>

  <path class="line" d="M 280 286 L 280 320" marker-end="url(#a)"/>
  <rect class="lblbg" x="294" y="296" width="74" height="13"/>
  <text class="lbl" x="330" y="306" text-anchor="middle">speech clip</text>

  <path class="line" d="M 280 372 L 280 406" marker-end="url(#a)"/>
  <rect class="lblbg" x="294" y="382" width="64" height="13"/>
  <text class="lbl" x="326" y="392" text-anchor="middle">transcript</text>

  <path class="line" d="M 280 458 L 280 492" marker-end="url(#a)"/>
  <rect class="lblbg" x="294" y="468" width="62" height="13"/>
  <text class="lbl" x="324" y="478" text-anchor="middle">reply text</text>

  <path class="line" d="M 280 544 L 280 566" marker-end="url(#a)"/>
  <rect class="lblbg" x="294" y="548" width="80" height="13"/>
  <text class="lbl" x="334" y="558" text-anchor="middle">PCM 24 kHz</text>
</svg>
