<svg xmlns="http://www.w3.org/2000/svg" viewBox="0 0 720 720" role="img" aria-labelledby="title">
  <title id="title">Bring-up order</title>
  <style>
    .bg    { fill: #ffffff; }
    .box   { fill: #f2f3f7; stroke: #7a7d8a; stroke-width: 1.2; rx: 6; ry: 6; }
    .crit  { fill: #fde4e8; stroke: #c53b5a; stroke-width: 2; rx: 6; ry: 6; }
    .prim  { fill: #dbe6ff; stroke: #1e66f5; stroke-width: 1.8; rx: 6; ry: 6; }
    .tb    { fill: #1e1e2e; font-family: -apple-system, "Segoe UI", Arial, sans-serif; font-size: 13.5px; font-weight: 700; }
    .sub   { fill: #4b4f5a; font-family: -apple-system, "Segoe UI", Arial, sans-serif; font-size: 12px; }
    .num   { fill: #b3741a; font-family: ui-monospace, Consolas, monospace; font-size: 18px; font-weight: 700; }
    .line  { stroke: #4b4f5a; stroke-width: 1.4; fill: none; }
    .arr   { fill: #4b4f5a; }
    .title { fill: #1e1e2e; font-family: -apple-system, "Segoe UI", Arial, sans-serif; font-size: 15px; font-weight: 700; }
  </style>
  <defs>
    <marker id="a" viewBox="0 0 10 10" refX="9" refY="5" markerWidth="7" markerHeight="7" orient="auto">
      <path d="M 0 0 L 10 5 L 0 10 z" class="arr"/>
    </marker>
  </defs>
  <rect class="bg" width="720" height="720"/>

  <text class="title" x="360" y="30" text-anchor="middle">main.py bring-up order</text>
  <text class="sub"   x="360" y="50" text-anchor="middle">red box = LLM must allocate contiguous VRAM first</text>

  <!-- 9 steps -->
  <text class="num" x="44" y="104">1</text>
  <rect class="box" x="80" y="80" width="560" height="44"/>
  <text class="tb"  x="95" y="108">Config · logging · readiness gate (audit model files)</text>
  <path class="line" d="M 360 124 L 360 150" marker-end="url(#a)"/>

  <text class="num" x="44" y="180">2</text>
  <rect class="box" x="80" y="156" width="560" height="44"/>
  <text class="tb"  x="95" y="184">EventBus · GPUArbiter · Telemetry recorder</text>
  <path class="line" d="M 360 200 L 360 226" marker-end="url(#a)"/>

  <text class="num" x="44" y="256">3</text>
  <rect class="crit" x="80" y="232" width="560" height="44"/>
  <text class="tb"  x="95" y="260">LLM engine (quantised; needs a contiguous VRAM block)</text>
  <path class="line" d="M 360 276 L 360 302" marker-end="url(#a)"/>

  <text class="num" x="44" y="332">4</text>
  <rect class="box" x="80" y="308" width="560" height="44"/>
  <text class="tb"  x="95" y="336">Audio stack · VAD · STT · TTS · ReSpeaker</text>
  <path class="line" d="M 360 352 L 360 378" marker-end="url(#a)"/>

  <text class="num" x="44" y="408">5</text>
  <rect class="box" x="80" y="384" width="560" height="44"/>
  <text class="tb"  x="95" y="412">Vision stack · camera · face detection</text>
  <path class="line" d="M 360 428 L 360 454" marker-end="url(#a)"/>

  <text class="num" x="44" y="484">6</text>
  <rect class="box" x="80" y="460" width="560" height="44"/>
  <text class="tb"  x="95" y="488">Motor stack · homing · face-tracker wire-up</text>
  <path class="line" d="M 360 504 L 360 530" marker-end="url(#a)"/>

  <text class="num" x="44" y="560">7</text>
  <rect class="prim" x="80" y="536" width="560" height="44"/>
  <text class="tb"  x="95" y="564">ConversationManager (turn orchestrator)</text>
  <path class="line" d="M 360 580 L 360 606" marker-end="url(#a)"/>

  <text class="num" x="44" y="636">8</text>
  <rect class="prim" x="80" y="612" width="560" height="44"/>
  <text class="tb"  x="95" y="640">BehaviorEngine · Coordinator · HealthMonitor</text>
  <path class="line" d="M 360 656 L 360 682" marker-end="url(#a)"/>

  <text class="num" x="44" y="712">9</text>
  <rect class="box" x="80" y="688" width="560" height="24"/>
  <text class="tb"  x="95" y="706">Renderer · startup greeting · UI or headless loop</text>
</svg>
