<svg xmlns="http://www.w3.org/2000/svg" viewBox="0 0 1000 560" role="img" aria-labelledby="title">
  <title id="title">EventBus fan-out</title>
  <style>
    .bg   { fill: #ffffff; }
    .box  { fill: #f2f3f7; stroke: #7a7d8a; stroke-width: 1.2; rx: 6; ry: 6; }
    .bus  { fill: #dbe6ff; stroke: #1e66f5; stroke-width: 2; rx: 8; ry: 8; }
    .tb   { fill: #1e1e2e; font-family: -apple-system, "Segoe UI", Arial, sans-serif; font-size: 14px; font-weight: 700; }
    .sub  { fill: #4b4f5a; font-family: -apple-system, "Segoe UI", Arial, sans-serif; font-size: 12px; }
    .lbl  { fill: #b3741a; font-family: ui-monospace, Consolas, monospace; font-size: 11.5px; font-weight: 700; }
    .hdr  { fill: #1e66f5; font-family: -apple-system, "Segoe UI", Arial, sans-serif; font-size: 11px; font-weight: 700; letter-spacing: 0.6px; }
    .line { stroke: #4b4f5a; stroke-width: 1.4; fill: none; }
    .arr  { fill: #4b4f5a; }
    .title{ fill: #1e1e2e; font-family: -apple-system, "Segoe UI", Arial, sans-serif; font-size: 16px; font-weight: 700; }
  </style>
  <defs>
    <marker id="a" viewBox="0 0 10 10" refX="9" refY="5" markerWidth="7" markerHeight="7" orient="auto">
      <path d="M 0 0 L 10 5 L 0 10 z" class="arr"/>
    </marker>
  </defs>
  <rect class="bg" width="1000" height="560"/>

  <text class="title" x="500" y="28" text-anchor="middle">EventBus fan-out</text>
  <text class="sub"   x="500" y="48" text-anchor="middle">publishers (left) · bus (centre) · subscribers (right)</text>

  <text class="hdr" x="150" y="78" text-anchor="middle">PUBLISHERS</text>
  <text class="hdr" x="500" y="78" text-anchor="middle">BUS · EVENTS</text>
  <text class="hdr" x="850" y="78" text-anchor="middle">SUBSCRIBERS</text>

  <!-- Publishers -->
  <rect class="box" x="40" y="96"  width="220" height="48"/>
  <text class="tb" x="150" y="124" text-anchor="middle">ConversationManager</text>

  <rect class="box" x="40" y="156" width="220" height="48"/>
  <text class="tb" x="150" y="184" text-anchor="middle">BehaviorEngine</text>

  <rect class="box" x="40" y="216" width="220" height="48"/>
  <text class="tb" x="150" y="244" text-anchor="middle">HealthMonitor</text>

  <rect class="box" x="40" y="276" width="220" height="48"/>
  <text class="tb" x="150" y="304" text-anchor="middle">VisionPipeline</text>

  <rect class="box" x="40" y="336" width="220" height="48"/>
  <text class="tb" x="150" y="364" text-anchor="middle">TTS engine</text>

  <!-- Bus -->
  <rect class="bus" x="340" y="106" width="320" height="310"/>
  <text class="tb"  x="500" y="136" text-anchor="middle">EventBus</text>
  <text class="sub" x="500" y="156" text-anchor="middle">async worker · 1 thread</text>
  <text class="sub" x="500" y="172" text-anchor="middle">exception-isolated handlers</text>

  <text class="lbl" x="500" y="208" text-anchor="middle">TurnStarted</text>
  <text class="lbl" x="500" y="228" text-anchor="middle">TurnFirstToken</text>
  <text class="lbl" x="500" y="248" text-anchor="middle">TurnFirstAudio</text>
  <text class="lbl" x="500" y="268" text-anchor="middle">TurnCancelled</text>
  <text class="lbl" x="500" y="288" text-anchor="middle">TurnCompleted</text>
  <text class="lbl" x="500" y="308" text-anchor="middle">StateChanged</text>
  <text class="lbl" x="500" y="328" text-anchor="middle">VisemeStream</text>
  <text class="lbl" x="500" y="348" text-anchor="middle">AffectTag</text>
  <text class="lbl" x="500" y="368" text-anchor="middle">HealthDegraded</text>

  <!-- Subscribers -->
  <rect class="box" x="740" y="96"  width="220" height="48"/>
  <text class="tb" x="850" y="124" text-anchor="middle">TelemetryRecorder</text>

  <rect class="box" x="740" y="156" width="220" height="48"/>
  <text class="tb" x="850" y="184" text-anchor="middle">FaceRenderer</text>

  <rect class="box" x="740" y="216" width="220" height="48"/>
  <text class="tb" x="850" y="244" text-anchor="middle">Coordinator</text>

  <rect class="box" x="740" y="276" width="220" height="48"/>
  <text class="tb" x="850" y="304" text-anchor="middle">GUI status widgets</text>

  <rect class="box" x="740" y="336" width="220" height="48"/>
  <text class="tb" x="850" y="364" text-anchor="middle">LipSync driver</text>

  <!-- Arrows -->
  <path class="line" d="M 260 120 L 340 120" marker-end="url(#a)"/>
  <path class="line" d="M 260 180 L 340 180" marker-end="url(#a)"/>
  <path class="line" d="M 260 240 L 340 240" marker-end="url(#a)"/>
  <path class="line" d="M 260 300 L 340 300" marker-end="url(#a)"/>
  <path class="line" d="M 260 360 L 340 360" marker-end="url(#a)"/>

  <path class="line" d="M 660 120 L 740 120" marker-end="url(#a)"/>
  <path class="line" d="M 660 180 L 740 180" marker-end="url(#a)"/>
  <path class="line" d="M 660 240 L 740 240" marker-end="url(#a)"/>
  <path class="line" d="M 660 300 L 740 300" marker-end="url(#a)"/>
  <path class="line" d="M 660 360 L 740 360" marker-end="url(#a)"/>

  <!-- Footer -->
  <text class="sub" x="500" y="460" text-anchor="middle">Any publisher may emit any event; any subscriber may listen to any subset.</text>
  <text class="sub" x="500" y="478" text-anchor="middle">A failing handler never stops the others. Exceptions are caught per-subscriber.</text>
</svg>
