<svg xmlns="http://www.w3.org/2000/svg" viewBox="0 0 1300 480" role="img" aria-labelledby="title">
  <title id="title">One conversation turn</title>
  <style>
    .bg    { fill: #ffffff; }
    .io    { fill: #dbe6ff; stroke: #1e66f5; stroke-width: 1.8; rx: 6; ry: 6; }
    .ml    { fill: #fff3d6; stroke: #b3741a; stroke-width: 1.5; rx: 6; ry: 6; }
    .box   { fill: #f2f3f7; stroke: #7a7d8a; stroke-width: 1.2; rx: 6; ry: 6; }
    .orc   { fill: #e6f4e8; stroke: #2f8f3c; stroke-width: 1.8; rx: 6; ry: 6; }
    .tb    { fill: #1e1e2e; font-family: -apple-system, "Segoe UI", Arial, sans-serif; font-size: 13px; font-weight: 700; }
    .sub   { fill: #4b4f5a; font-family: -apple-system, "Segoe UI", Arial, sans-serif; font-size: 11px; }
    .lbl   { fill: #7a7d8a; font-family: ui-monospace, Consolas, monospace; font-size: 11px; }
    .lblg  { fill: #2f8f3c; font-family: ui-monospace, Consolas, monospace; font-size: 11px; }
    .line  { stroke: #4b4f5a; stroke-width: 1.4; fill: none; }
    .branch{ stroke: #2f8f3c; stroke-width: 1.8; fill: none; }
    .arr   { fill: #4b4f5a; }
    .arrg  { fill: #2f8f3c; }
    .title { fill: #1e1e2e; font-family: -apple-system, "Segoe UI", Arial, sans-serif; font-size: 15px; font-weight: 700; }
  </style>
  <defs>
    <marker id="a" viewBox="0 0 10 10" refX="9" refY="5" markerWidth="7" markerHeight="7" orient="auto">
      <path d="M 0 0 L 10 5 L 0 10 z" class="arr"/>
    </marker>
    <marker id="g" viewBox="0 0 10 10" refX="9" refY="5" markerWidth="7" markerHeight="7" orient="auto">
      <path d="M 0 0 L 10 5 L 0 10 z" class="arrg"/>
    </marker>
  </defs>
  <rect class="bg" width="1300" height="480"/>

  <text class="title" x="650" y="30" text-anchor="middle">One conversation turn</text>
  <text class="sub"   x="650" y="50" text-anchor="middle">spine flows left to right · face branch flows down from LLM and TTS</text>

  <!-- Spine boxes, y=130..200 -->
  <rect class="io"  x="30"   y="130" width="130" height="70"/>
  <text class="tb"  x="95"   y="162" text-anchor="middle">Mic</text>
  <text class="sub" x="95"   y="180" text-anchor="middle">16 kHz PCM</text>

  <rect class="ml"  x="210"  y="130" width="130" height="70"/>
  <text class="tb"  x="275"  y="162" text-anchor="middle">VAD</text>
  <text class="sub" x="275"  y="180" text-anchor="middle">Silero v5</text>

  <rect class="ml"  x="390"  y="130" width="130" height="70"/>
  <text class="tb"  x="455"  y="162" text-anchor="middle">STT</text>
  <text class="sub" x="455"  y="180" text-anchor="middle">Parakeet TDT</text>

  <rect class="orc" x="570"  y="130" width="160" height="70"/>
  <text class="tb"  x="650"  y="162" text-anchor="middle">Prompt build</text>
  <text class="sub" x="650"  y="180" text-anchor="middle">hints + history</text>

  <rect class="ml"  x="780"  y="130" width="130" height="70"/>
  <text class="tb"  x="845"  y="162" text-anchor="middle">LLM</text>
  <text class="sub" x="845"  y="180" text-anchor="middle">Llama-3.2-1B</text>

  <rect class="box" x="960"  y="130" width="140" height="70"/>
  <text class="tb"  x="1030" y="162" text-anchor="middle">Sentence split</text>
  <text class="sub" x="1030" y="180" text-anchor="middle">pysbd</text>

  <rect class="ml"  x="1150" y="130" width="130" height="70"/>
  <text class="tb"  x="1215" y="162" text-anchor="middle">TTS</text>
  <text class="sub" x="1215" y="180" text-anchor="middle">Piper · 24 kHz</text>

  <!-- Spine arrows, labels above arrows -->
  <path class="line" d="M 160 165 L 210 165" marker-end="url(#a)"/>
  <text class="lbl" x="185" y="120" text-anchor="middle">chunk</text>

  <path class="line" d="M 340 165 L 390 165" marker-end="url(#a)"/>
  <text class="lbl" x="365" y="120" text-anchor="middle">speech clip</text>

  <path class="line" d="M 520 165 L 570 165" marker-end="url(#a)"/>
  <text class="lbl" x="545" y="120" text-anchor="middle">transcript</text>

  <path class="line" d="M 730 165 L 780 165" marker-end="url(#a)"/>
  <text class="lbl" x="755" y="120" text-anchor="middle">prompt</text>

  <path class="line" d="M 910 165 L 960 165" marker-end="url(#a)"/>
  <text class="lbl" x="935" y="120" text-anchor="middle">reply</text>

  <path class="line" d="M 1100 165 L 1150 165" marker-end="url(#a)"/>
  <text class="lbl" x="1125" y="120" text-anchor="middle">sentence</text>

  <!-- Face branch -->
  <rect class="orc" x="780" y="310" width="130" height="60"/>
  <text class="tb"  x="845" y="338" text-anchor="middle">Affect tag</text>
  <text class="sub" x="845" y="356" text-anchor="middle">[affect: happy]</text>

  <rect class="io"  x="960" y="310" width="220" height="60"/>
  <text class="tb"  x="1070" y="338" text-anchor="middle">ESP32 face</text>
  <text class="sub" x="1070" y="356" text-anchor="middle">FACE v=… a=… · VISEME …</text>

  <path class="branch" d="M 845 200 L 845 310" marker-end="url(#g)"/>
  <text class="lblg" x="855" y="255">terminal tag</text>

  <path class="branch" d="M 910 340 L 960 340" marker-end="url(#g)"/>

  <!-- TTS → face: goes DOWN at x=1215 then left at y=260 then down into face top at x=1070.
       Horizontal run at y=260 is above the affect-tag box (y>=310) so no crossing. -->
  <path class="branch" d="M 1215 200 L 1215 260 L 1070 260 L 1070 310" marker-end="url(#g)"/>
  <text class="lblg" x="1135" y="254" text-anchor="middle">viseme PCM</text>

  <!-- Legend -->
  <g transform="translate(30, 420)">
    <rect width="16" height="4" fill="#4b4f5a"/>
    <text class="sub" x="22" y="6">turn-data flow</text>
    <rect x="150" width="16" height="4" fill="#2f8f3c"/>
    <text class="sub" x="172" y="6">face / display</text>
    <rect x="280" y="-6" width="16" height="14" fill="#dbe6ff" stroke="#1e66f5" stroke-width="1.5"/>
    <text class="sub" x="302" y="6">I/O surface</text>
    <rect x="400" y="-6" width="16" height="14" fill="#fff3d6" stroke="#b3741a" stroke-width="1.5"/>
    <text class="sub" x="422" y="6">ML model</text>
    <rect x="510" y="-6" width="16" height="14" fill="#f2f3f7" stroke="#7a7d8a" stroke-width="1"/>
    <text class="sub" x="532" y="6">control step</text>
  </g>
</svg>
