<svg xmlns="http://www.w3.org/2000/svg" viewBox="0 0 560 640" role="img" aria-labelledby="title">
  <title id="title">Vision pipeline — top-down</title>
  <style>
    .bg   { fill: #ffffff; }
    .box  { fill: #f2f3f7; stroke: #7a7d8a; stroke-width: 1.2; rx: 6; ry: 6; }
    .io   { fill: #dbe6ff; stroke: #1e66f5; stroke-width: 1.8; rx: 6; ry: 6; }
    .ml   { fill: #fff3d6; stroke: #b3741a; stroke-width: 1.5; rx: 6; ry: 6; }
    .orc  { fill: #e6f4e8; stroke: #2f8f3c; stroke-width: 1.8; rx: 6; ry: 6; }
    .off  { fill: #f6f7fb; stroke: #7a7d8a; stroke-width: 1.2; stroke-dasharray: 5 3; rx: 6; ry: 6; }
    .tb   { fill: #1e1e2e; font-family: -apple-system, "Segoe UI", Arial, sans-serif; font-size: 14px; font-weight: 700; }
    .sub  { fill: #4b4f5a; font-family: -apple-system, "Segoe UI", Arial, sans-serif; font-size: 12px; }
    .off-t{ fill: #7a7d8a; font-family: -apple-system, "Segoe UI", Arial, sans-serif; font-size: 14px; font-weight: 700; }
    .off-s{ fill: #8c8fa1; font-family: -apple-system, "Segoe UI", Arial, sans-serif; font-size: 11px; font-style: italic; }
    .lbl  { fill: #7a7d8a; font-family: ui-monospace, Consolas, monospace; font-size: 11px; }
    .lblbg{ fill: #ffffff; }
    .line { stroke: #4b4f5a; stroke-width: 1.4; fill: none; }
    .offline { stroke: #8c8fa1; stroke-width: 1.4; stroke-dasharray: 5 3; fill: none; }
    .arr  { fill: #4b4f5a; }
    .offarr { fill: #8c8fa1; }
    .title{ fill: #1e1e2e; font-family: -apple-system, "Segoe UI", Arial, sans-serif; font-size: 15px; font-weight: 700; }
  </style>
  <defs>
    <marker id="a" viewBox="0 0 10 10" refX="9" refY="5" markerWidth="7" markerHeight="7" orient="auto">
      <path d="M 0 0 L 10 5 L 0 10 z" class="arr"/>
    </marker>
    <marker id="b" viewBox="0 0 10 10" refX="9" refY="5" markerWidth="7" markerHeight="7" orient="auto">
      <path d="M 0 0 L 10 5 L 0 10 z" class="offarr"/>
    </marker>
  </defs>
  <rect class="bg" width="560" height="640"/>

  <text class="title" x="280" y="28" text-anchor="middle">Vision subsystem</text>

  <rect class="io"  x="180" y="62" width="200" height="52"/>
  <text class="tb"  x="280" y="88" text-anchor="middle">IMX219 CSI Camera</text>
  <text class="sub" x="280" y="106" text-anchor="middle">640 × 480 @ 30 fps</text>

  <rect class="box" x="180" y="148" width="200" height="52"/>
  <text class="tb"  x="280" y="172" text-anchor="middle">CSICamera grab</text>
  <text class="sub" x="280" y="190" text-anchor="middle">GStreamer · nvargus</text>

  <rect class="ml"  x="180" y="234" width="200" height="52"/>
  <text class="tb"  x="280" y="258" text-anchor="middle">YOLO26n-pose</text>
  <text class="sub" x="280" y="276" text-anchor="middle">head keypoints → face bbox</text>

  <rect class="orc" x="180" y="320" width="200" height="52"/>
  <text class="tb"  x="280" y="344" text-anchor="middle">EmotionPipeline state</text>
  <text class="sub" x="280" y="362" text-anchor="middle">EMA · 3 s staleness fade</text>

  <!-- Branch row: integrated (left) vs standalone (right, dashed) -->
  <rect class="orc" x="40"  y="420" width="200" height="56"/>
  <text class="tb"  x="140" y="446" text-anchor="middle">FaceTracker</text>
  <text class="sub" x="140" y="464" text-anchor="middle">15 Hz · head servos</text>

  <rect class="off" x="320" y="420" width="200" height="56"/>
  <text class="off-t" x="420" y="446" text-anchor="middle">HSEmotion (8-class)</text>
  <text class="off-s" x="420" y="464" text-anchor="middle">standalone · not integrated</text>

  <!-- Destinations -->
  <rect class="io"  x="40"  y="510" width="200" height="46"/>
  <text class="tb"  x="140" y="538" text-anchor="middle">Head servos</text>

  <rect class="off" x="320" y="510" width="200" height="46"/>
  <text class="off-t" x="420" y="530" text-anchor="middle">valence / arousal</text>
  <text class="off-s" x="420" y="548" text-anchor="middle">debug GUI only</text>

  <!-- Arrows down the spine -->
  <path class="line" d="M 280 114 L 280 148" marker-end="url(#a)"/>
  <rect class="lblbg" x="294" y="124" width="62" height="13"/>
  <text class="lbl" x="324" y="134" text-anchor="middle">BGR frame</text>

  <path class="line" d="M 280 200 L 280 234" marker-end="url(#a)"/>
  <rect class="lblbg" x="294" y="210" width="96" height="13"/>
  <text class="lbl" x="342" y="220" text-anchor="middle">every 2 frames</text>

  <path class="line" d="M 280 286 L 280 320" marker-end="url(#a)"/>
  <rect class="lblbg" x="294" y="296" width="108" height="13"/>
  <text class="lbl" x="348" y="306" text-anchor="middle">face bbox + score</text>

  <!-- Branch -->
  <path class="line"    d="M 280 372 L 280 398 L 140 398 L 140 420" marker-end="url(#a)"/>
  <path class="offline" d="M 280 372 L 280 398 L 420 398 L 420 420" marker-end="url(#b)"/>

  <!-- Down to destinations -->
  <path class="line"    d="M 140 476 L 140 510" marker-end="url(#a)"/>
  <path class="offline" d="M 420 476 L 420 510" marker-end="url(#b)"/>

  <!-- Legend -->
  <rect x="40" y="596" width="14" height="4" fill="#4b4f5a"/>
  <text class="sub" x="60" y="602">integrated</text>
  <rect x="180" y="596" width="14" height="2" fill="#8c8fa1" stroke="#8c8fa1" stroke-dasharray="4 3"/>
  <text class="sub" x="200" y="602">standalone only</text>
</svg>
