<svg xmlns="http://www.w3.org/2000/svg" viewBox="0 0 1000 540" role="img" aria-labelledby="title">
  <title id="title">Memory budget</title>
  <style>
    .bg   { fill: #ffffff; }
    .tb   { fill: #1e1e2e; font-family: -apple-system, "Segoe UI", Arial, sans-serif; font-size: 14px; font-weight: 700; }
    .sub  { fill: #4b4f5a; font-family: -apple-system, "Segoe UI", Arial, sans-serif; font-size: 12px; }
    .tick { fill: #7a7d8a; font-family: ui-monospace, Consolas, monospace; font-size: 11px; }
    .axis { stroke: #7a7d8a; stroke-width: 1; }
    .title{ fill: #1e1e2e; font-family: -apple-system, "Segoe UI", Arial, sans-serif; font-size: 16px; font-weight: 700; }

    /* Live (integrated) segments — mid-saturation so black text reads on all */
    .os   { fill: #e0e2e8; stroke: #7a7d8a; stroke-width: 0.8; }
    .llm  { fill: #c3d7fa; stroke: #1e66f5; stroke-width: 0.8; }
    .stt  { fill: #c3e9c6; stroke: #2f8f3c; stroke-width: 0.8; }
    .yolo { fill: #ffe3b0; stroke: #b3741a; stroke-width: 0.8; }
    .aud  { fill: #ffd0b8; stroke: #c66b3a; stroke-width: 0.8; }
    .head { fill: #e5d6f5; stroke: #7a4fbe; stroke-width: 0.8; }

    /* Dropped (hatched, paler) */
    .gllm { fill: #c3d7fa; opacity: 0.4; stroke: #1e66f5; stroke-width: 1; stroke-dasharray: 4 3; }
    .gemo { fill: #c3e9c6; opacity: 0.4; stroke: #2f8f3c; stroke-width: 1; stroke-dasharray: 4 3; }
    .gmem { fill: #f4c6e5; opacity: 0.5; stroke: #a63d8a; stroke-width: 1; stroke-dasharray: 4 3; }

    .label { fill: #1e1e2e; font-family: -apple-system, "Segoe UI", Arial, sans-serif; font-size: 11px; font-weight: 700; }
    .drop  { fill: #1e1e2e; font-family: -apple-system, "Segoe UI", Arial, sans-serif; font-size: 11px; }
    .connector { stroke: #7a7d8a; stroke-width: 0.8; fill: none; }
  </style>
  <rect class="bg" width="1000" height="540"/>

  <text class="title" x="500" y="28" text-anchor="middle">Jetson Orin Nano 8 GB memory budget</text>
  <text class="sub"   x="500" y="48" text-anchor="middle">unified CPU + GPU memory · approximate footprints (100 px ≈ 1 GB)</text>

  <!-- Row labels -->
  <text class="tb" x="25" y="155" transform="rotate(-90, 25, 155)" text-anchor="middle">Integrated build</text>
  <text class="tb" x="25" y="335" transform="rotate(-90, 25, 335)" text-anchor="middle">Dropped</text>

  <!-- Axis at y=420, bar from x=100 to x=900 (8 GB) -->
  <line class="axis" x1="100" y1="420" x2="900" y2="420"/>
  <g>
    <line class="axis" x1="100" y1="420" x2="100" y2="430"/>
    <text class="tick" x="100" y="444" text-anchor="middle">0</text>
    <line class="axis" x1="200" y1="420" x2="200" y2="430"/>
    <text class="tick" x="200" y="444" text-anchor="middle">1</text>
    <line class="axis" x1="300" y1="420" x2="300" y2="430"/>
    <text class="tick" x="300" y="444" text-anchor="middle">2</text>
    <line class="axis" x1="400" y1="420" x2="400" y2="430"/>
    <text class="tick" x="400" y="444" text-anchor="middle">3</text>
    <line class="axis" x1="500" y1="420" x2="500" y2="430"/>
    <text class="tick" x="500" y="444" text-anchor="middle">4</text>
    <line class="axis" x1="600" y1="420" x2="600" y2="430"/>
    <text class="tick" x="600" y="444" text-anchor="middle">5</text>
    <line class="axis" x1="700" y1="420" x2="700" y2="430"/>
    <text class="tick" x="700" y="444" text-anchor="middle">6</text>
    <line class="axis" x1="800" y1="420" x2="800" y2="430"/>
    <text class="tick" x="800" y="444" text-anchor="middle">7</text>
    <line class="axis" x1="900" y1="420" x2="900" y2="430"/>
    <text class="tick" x="900" y="444" text-anchor="middle">8</text>
  </g>
  <text class="sub" x="500" y="466" text-anchor="middle">GB</text>

  <!-- Integrated bar (y=110..180) -->
  <rect class="os"  x="100" y="110" width="80"  height="60"/>
  <text class="label" x="140" y="144" text-anchor="middle">OS</text>
  <text class="label" x="140" y="160" text-anchor="middle">~0.8</text>

  <rect class="llm" x="180" y="110" width="150" height="60"/>
  <text class="label" x="255" y="144" text-anchor="middle">LLM + KV</text>
  <text class="label" x="255" y="160" text-anchor="middle">~1.5 GB</text>

  <rect class="stt" x="330" y="110" width="60"  height="60"/>
  <text class="label" x="360" y="144" text-anchor="middle">STT</text>
  <text class="label" x="360" y="160" text-anchor="middle">~0.5</text>

  <rect class="yolo" x="390" y="110" width="40" height="60"/>
  <text class="label" x="410" y="144" text-anchor="middle">YOLO</text>
  <text class="label" x="410" y="160" text-anchor="middle">~0.3</text>

  <rect class="aud"  x="430" y="110" width="45" height="60"/>
  <text class="label" x="452" y="144" text-anchor="middle">audio</text>
  <text class="label" x="452" y="160" text-anchor="middle">~0.4</text>

  <rect class="head" x="475" y="110" width="425" height="60"/>
  <text class="label" x="687" y="144" text-anchor="middle">headroom</text>
  <text class="label" x="687" y="160" text-anchor="middle">KV growth · camera · JIT · safety · ~4.2 GB</text>

  <rect x="100" y="110" width="800" height="60" fill="none" stroke="#1e66f5" stroke-width="1.5"/>

  <!-- Dropped bar (y=290..360) with leader lines to external labels -->
  <rect class="gllm" x="180" y="290" width="100" height="70"/>
  <text class="drop" x="230" y="322" text-anchor="middle" style="font-weight:700">multimodal</text>
  <text class="drop" x="230" y="340" text-anchor="middle" style="font-weight:700">projector</text>
  <text class="drop" x="230" y="356" text-anchor="middle">~1.0 GB</text>

  <rect class="gemo" x="280" y="290" width="20" height="70"/>
  <path class="connector" d="M 290 290 L 290 255 L 370 255"/>
  <text class="drop" x="380" y="258" style="font-weight:700">HSEmotion · ~0.2 GB</text>

  <rect class="gmem" x="300" y="290" width="20" height="70"/>
  <path class="connector" d="M 310 360 L 310 395 L 370 395"/>
  <text class="drop" x="380" y="398" style="font-weight:700">Mem0 + Chroma · ~0.2 GB</text>

  <rect x="180" y="290" width="140" height="70" fill="none" stroke="#7a7d8a" stroke-width="1.2" stroke-dasharray="4 3"/>

  <text class="sub" x="500" y="495" text-anchor="middle" style="fill:#b3741a;font-weight:700">Dropping these three kept the voice loop within budget for sustained turns.</text>

  <!-- Legend -->
  <g transform="translate(60, 515)">
    <rect class="os"   x="0"   y="0" width="14" height="12"/><text class="sub" x="20"  y="10">OS</text>
    <rect class="llm"  x="70"  y="0" width="14" height="12"/><text class="sub" x="90"  y="10">LLM + KV</text>
    <rect class="stt"  x="190" y="0" width="14" height="12"/><text class="sub" x="210" y="10">STT</text>
    <rect class="yolo" x="270" y="0" width="14" height="12"/><text class="sub" x="290" y="10">YOLO</text>
    <rect class="aud"  x="360" y="0" width="14" height="12"/><text class="sub" x="380" y="10">Audio</text>
    <rect class="head" x="450" y="0" width="14" height="12"/><text class="sub" x="470" y="10">Headroom</text>
    <rect class="gllm" x="580" y="0" width="14" height="12"/><text class="sub" x="600" y="10">Dropped (hatched)</text>
  </g>
</svg>
