<svg xmlns="http://www.w3.org/2000/svg" viewBox="0 0 1000 540" role="img" aria-labelledby="title">
  <title id="title">8 GB memory budget — what fits, what had to drop</title>
  <style>
    .bg { fill: #1e1e2e; }
    .tb  { fill: #cdd6f4; font-family: -apple-system, "Segoe UI", Arial, sans-serif; font-size: 14px; font-weight: 700; }
    .sub { fill: #a6adc8; font-family: -apple-system, "Segoe UI", Arial, sans-serif; font-size: 12px; }
    .cap { fill: #f9e2af; font-family: ui-monospace, Consolas, monospace; font-size: 11px; }
    .lgd { fill: #cdd6f4; font-family: -apple-system, "Segoe UI", Arial, sans-serif; font-size: 12px; }
    .axis { stroke: #45475a; stroke-width: 1.2; }
    .tick { fill: #a6adc8; font-family: ui-monospace, Consolas, monospace; font-size: 11px; }
    .seg-os  { fill: #6c7086; stroke: #45475a; stroke-width: 0.8; }
    .seg-llm { fill: #89b4fa; stroke: #45475a; stroke-width: 0.8; }
    .seg-stt { fill: #a6e3a1; stroke: #45475a; stroke-width: 0.8; }
    .seg-yolo{ fill: #f9e2af; stroke: #45475a; stroke-width: 0.8; }
    .seg-aud { fill: #fab387; stroke: #45475a; stroke-width: 0.8; }
    .seg-head{ fill: #cba6f7; stroke: #45475a; stroke-width: 0.8; }
    .ghost-llm  { fill: #89b4fa; opacity: 0.35; stroke: #89b4fa; stroke-width: 1; stroke-dasharray: 4 3; }
    .ghost-emo  { fill: #a6e3a1; opacity: 0.35; stroke: #a6e3a1; stroke-width: 1; stroke-dasharray: 4 3; }
    .ghost-mem  { fill: #f5c2e7; opacity: 0.35; stroke: #f5c2e7; stroke-width: 1; stroke-dasharray: 4 3; }
    .label { fill: #1e1e2e; font-family: -apple-system, "Segoe UI", Arial, sans-serif; font-size: 11px; font-weight: 700; }
    .labelw{ fill: #cdd6f4; font-family: -apple-system, "Segoe UI", Arial, sans-serif; font-size: 11px; font-weight: 700; }
    .drop  { fill: #a6adc8; font-family: -apple-system, "Segoe UI", Arial, sans-serif; font-size: 11px; }
    .connector { stroke: #6c7086; stroke-width: 0.8; fill: none; }
  </style>
  <rect class="bg" width="1000" height="540"/>

  <text class="tb" x="500" y="30" text-anchor="middle">Jetson Orin Nano 8 GB — memory budget</text>
  <text class="sub" x="500" y="50" text-anchor="middle">unified CPU + GPU memory; approximate footprints (100 px ≈ 1 GB)</text>

  <!-- Y axis row labels -->
  <text class="tb" x="25" y="155" transform="rotate(-90, 25, 155)" text-anchor="middle">Integrated build</text>
  <text class="tb" x="25" y="335" transform="rotate(-90, 25, 335)" text-anchor="middle">Dropped</text>

  <!-- Axis -->
  <line class="axis" x1="100" y1="420" x2="900" y2="420"/>
  <g>
    <line class="axis" x1="100" y1="420" x2="100" y2="430"/>
    <text class="tick" x="100" y="444" text-anchor="middle">0</text>
    <line class="axis" x1="200" y1="420" x2="200" y2="430"/>
    <text class="tick" x="200" y="444" text-anchor="middle">1</text>
    <line class="axis" x1="300" y1="420" x2="300" y2="430"/>
    <text class="tick" x="300" y="444" text-anchor="middle">2</text>
    <line class="axis" x1="400" y1="420" x2="400" y2="430"/>
    <text class="tick" x="400" y="444" text-anchor="middle">3</text>
    <line class="axis" x1="500" y1="420" x2="500" y2="430"/>
    <text class="tick" x="500" y="444" text-anchor="middle">4</text>
    <line class="axis" x1="600" y1="420" x2="600" y2="430"/>
    <text class="tick" x="600" y="444" text-anchor="middle">5</text>
    <line class="axis" x1="700" y1="420" x2="700" y2="430"/>
    <text class="tick" x="700" y="444" text-anchor="middle">6</text>
    <line class="axis" x1="800" y1="420" x2="800" y2="430"/>
    <text class="tick" x="800" y="444" text-anchor="middle">7</text>
    <line class="axis" x1="900" y1="420" x2="900" y2="430"/>
    <text class="tick" x="900" y="444" text-anchor="middle">8</text>
  </g>
  <text class="sub" x="500" y="466" text-anchor="middle">GB</text>

  <!-- Integrated bar (top) — y=110..180 -->
  <rect class="seg-os"  x="100" y="110" width="80"  height="60"/>
  <text class="label" x="140" y="144" text-anchor="middle">OS</text>
  <text class="label" x="140" y="160" text-anchor="middle">~0.8</text>

  <rect class="seg-llm" x="180" y="110" width="150" height="60"/>
  <text class="label" x="255" y="144" text-anchor="middle">LLM + KV</text>
  <text class="label" x="255" y="160" text-anchor="middle">~1.5 GB</text>

  <rect class="seg-stt" x="330" y="110" width="60"  height="60"/>
  <text class="label" x="360" y="144" text-anchor="middle">STT</text>
  <text class="label" x="360" y="160" text-anchor="middle">~0.5</text>

  <rect class="seg-yolo" x="390" y="110" width="40" height="60"/>
  <text class="label" x="410" y="144" text-anchor="middle">YOLO</text>
  <text class="label" x="410" y="160" text-anchor="middle">~0.3</text>

  <rect class="seg-aud" x="430" y="110" width="45" height="60"/>
  <text class="label" x="452" y="144" text-anchor="middle">audio</text>
  <text class="label" x="452" y="160" text-anchor="middle">~0.4</text>

  <rect class="seg-head" x="475" y="110" width="425" height="60"/>
  <text class="labelw" x="687" y="144" text-anchor="middle">headroom</text>
  <text class="labelw" x="687" y="160" text-anchor="middle">KV growth, camera, JIT, safety · ~4.2 GB</text>

  <rect x="100" y="110" width="800" height="60" fill="none" stroke="#89b4fa" stroke-width="2"/>

  <!-- Dropped bar (bottom) — y=290..360.  Three segments side-by-side, then external labels with leader lines. -->
  <!-- Multimodal projector ~1.0 GB (100 px) -->
  <rect class="ghost-llm" x="180" y="290" width="100" height="70"/>
  <text class="drop" x="230" y="325" text-anchor="middle" style="fill:#cdd6f4;font-weight:700">multimodal</text>
  <text class="drop" x="230" y="343" text-anchor="middle" style="fill:#cdd6f4;font-weight:700">projector</text>
  <text class="drop" x="230" y="358" text-anchor="middle" style="fill:#cdd6f4">~1.0 GB</text>

  <!-- HSEmotion ~0.2 GB (20 px) -->
  <rect class="ghost-emo" x="280" y="290" width="20" height="70"/>
  <!-- leader line pointing up to label outside the bar -->
  <path class="connector" d="M 290 290 L 290 255 L 370 255"/>
  <text class="drop" x="380" y="253" style="fill:#cdd6f4;font-weight:700">HSEmotion · ~0.2 GB</text>

  <!-- Mem0 + Chroma ~0.2 GB (20 px) -->
  <rect class="ghost-mem" x="300" y="290" width="20" height="70"/>
  <path class="connector" d="M 310 360 L 310 395 L 370 395"/>
  <text class="drop" x="380" y="398" style="fill:#cdd6f4;font-weight:700">Mem0 + Chroma · ~0.2 GB</text>

  <!-- Outline dropped region -->
  <rect x="180" y="290" width="140" height="70" fill="none" stroke="#6c7086" stroke-width="1.2" stroke-dasharray="4 3"/>

  <!-- Take-away note -->
  <text class="sub" x="500" y="495" text-anchor="middle" style="fill:#f9e2af;font-weight:700">Dropping these three kept the voice loop within budget for sustained turns.</text>

  <!-- Legend -->
  <g transform="translate(60, 515)">
    <rect class="seg-os"   x="0"   y="0" width="14" height="12"/><text class="lgd" x="20"  y="10">OS</text>
    <rect class="seg-llm"  x="70" y="0" width="14" height="12"/><text class="lgd" x="90" y="10">LLM + KV</text>
    <rect class="seg-stt"  x="190" y="0" width="14" height="12"/><text class="lgd" x="210" y="10">STT</text>
    <rect class="seg-yolo" x="270" y="0" width="14" height="12"/><text class="lgd" x="290" y="10">YOLO</text>
    <rect class="seg-aud"  x="360" y="0" width="14" height="12"/><text class="lgd" x="380" y="10">Audio</text>
    <rect class="seg-head" x="450" y="0" width="14" height="12"/><text class="lgd" x="470" y="10">Headroom</text>
    <rect class="ghost-llm" x="580" y="0" width="14" height="12"/><text class="lgd" x="600" y="10">Dropped (hatched)</text>
  </g>
</svg>
